<mxfile host="app.diagrams.net" modified="2024-06-02T19:41:19.218Z" agent="Mozilla/5.0 (Windows NT 10.0; Win64; x64) AppleWebKit/537.36 (KHTML, like Gecko) Chrome/125.0.0.0 Safari/537.36" etag="YdPWvOFT8OiGy3y06iL-" version="24.4.10" type="github">
  <diagram name="PÃ¡gina-1" id="nO_YHnesKga44wesAzok">
    <mxGraphModel dx="2923" dy="1494" grid="1" gridSize="9" guides="1" tooltips="1" connect="1" arrows="1" fold="1" page="0" pageScale="1" pageWidth="400" pageHeight="1000" math="0" shadow="0">
      <root>
        <mxCell id="0" />
        <mxCell id="1" parent="0" />
        <mxCell id="xbLtoFNteLLevZgjdw11-1" value="API Gateway" style="shape=process;whiteSpace=wrap;html=1;backgroundOutline=1;fontSize=20;fillColor=#d5e8d4;strokeColor=#82b366;opacity=70;" parent="1" vertex="1">
          <mxGeometry x="-729" y="324" width="1296" height="60" as="geometry" />
        </mxCell>
        <mxCell id="xbLtoFNteLLevZgjdw11-2" value="Actor" style="shape=umlActor;verticalLabelPosition=bottom;verticalAlign=top;html=1;outlineConnect=0;" parent="1" vertex="1">
          <mxGeometry x="-531" y="594" width="47" height="69" as="geometry" />
        </mxCell>
        <mxCell id="xbLtoFNteLLevZgjdw11-3" value="emusicauth" style="rounded=1;whiteSpace=wrap;html=1;fontSize=17;fillColor=#ffe6cc;strokeColor=#d79b00;fontStyle=1" parent="1" vertex="1">
          <mxGeometry x="-522" y="-18" width="198" height="105" as="geometry" />
        </mxCell>
        <mxCell id="xbLtoFNteLLevZgjdw11-4" value="" style="edgeStyle=elbowEdgeStyle;elbow=vertical;endArrow=none;html=1;curved=0;rounded=0;endSize=8;startSize=8;endFill=0;" parent="1" edge="1">
          <mxGeometry width="50" height="50" relative="1" as="geometry">
            <mxPoint x="-508" y="324" as="sourcePoint" />
            <mxPoint x="-508" y="90" as="targetPoint" />
            <Array as="points" />
          </mxGeometry>
        </mxCell>
        <mxCell id="xbLtoFNteLLevZgjdw11-5" value="" style="line;strokeWidth=1;direction=south;html=1;" parent="1" vertex="1">
          <mxGeometry x="-512" y="387" width="10" height="207" as="geometry" />
        </mxCell>
        <mxCell id="xbLtoFNteLLevZgjdw11-16" value="&lt;div style=&quot;color: rgb(0, 0, 0); background-color: rgb(255, 255, 254); font-family: Consolas, &amp;quot;Courier New&amp;quot;, monospace; font-weight: normal; font-size: 14px; line-height: 18px; white-space: pre;&quot;&gt;&lt;div style=&quot;font-size: 14px;&quot;&gt;&lt;span style=&quot;color: rgb(0, 0, 0); font-size: 14px;&quot;&gt;{&lt;/span&gt;&lt;/div&gt;&lt;div style=&quot;font-size: 14px;&quot;&gt;&lt;span style=&quot;color: rgb(0, 0, 0); font-size: 14px;&quot;&gt;&amp;nbsp;&amp;nbsp;&amp;nbsp;&amp;nbsp;&lt;/span&gt;&lt;span style=&quot;color: rgb(163, 21, 21); font-size: 14px;&quot;&gt;&quot;access_token&quot;&lt;/span&gt;&lt;span style=&quot;color: rgb(0, 0, 0); font-size: 14px;&quot;&gt;:&amp;nbsp;&lt;/span&gt;&lt;span style=&quot;color: rgb(4, 81, 165); font-size: 14px;&quot;&gt;&quot;eyJhbGciOiJIUzUxMiJ9.eyJqdGkiOiJlNGUyYmJkMS04ZWNiLTQzYmQtY&lt;/span&gt;&lt;/div&gt;&lt;div style=&quot;font-size: 14px;&quot;&gt;&lt;span style=&quot;color: rgb(4, 81, 165); font-size: 14px;&quot;&gt;TVmNC05YzI2YzkyZTFhYWYiLCJpc3MiOiJlbXVzaWNhdXRoIiwiaWF0IjoxNzE3MzUwNzQ5LCJuYmYiOj&lt;/span&gt;&lt;/div&gt;&lt;div style=&quot;font-size: 14px;&quot;&gt;&lt;span style=&quot;color: rgb(4, 81, 165); font-size: 14px;&quot;&gt;E3MTczNTA3NDksImV4cCI6MTcxNzQzNzE0OX0.I2BIRpDfUNZ8hH7iHuoGwZuEeO1nxBSf8oqXpUbxAn&lt;/span&gt;&lt;/div&gt;&lt;div style=&quot;font-size: 14px;&quot;&gt;&lt;span style=&quot;color: rgb(4, 81, 165); font-size: 14px;&quot;&gt;PzzsKEHaE7uiC_xKi2vwdnhJ6AUxZY_tTOjuQltCqgyw&quot;&lt;/span&gt;&lt;/div&gt;&lt;div style=&quot;font-size: 14px;&quot;&gt;&lt;span style=&quot;color: rgb(0, 0, 0); font-size: 14px;&quot;&gt;}&lt;/span&gt;&lt;/div&gt;&lt;/div&gt;" style="text;whiteSpace=wrap;html=1;fontSize=14;" parent="1" vertex="1">
          <mxGeometry x="-414" y="435.5" width="549" height="72" as="geometry" />
        </mxCell>
        <mxCell id="xbLtoFNteLLevZgjdw11-47" style="edgeStyle=orthogonalEdgeStyle;rounded=0;orthogonalLoop=1;jettySize=auto;html=1;entryX=0.5;entryY=0;entryDx=0;entryDy=0;strokeWidth=1;endArrow=none;endFill=0;" parent="1" source="xbLtoFNteLLevZgjdw11-17" target="xbLtoFNteLLevZgjdw11-45" edge="1">
          <mxGeometry relative="1" as="geometry">
            <Array as="points">
              <mxPoint x="459" y="18" />
            </Array>
          </mxGeometry>
        </mxCell>
        <mxCell id="xbLtoFNteLLevZgjdw11-17" value="emusicuserds" style="rounded=1;whiteSpace=wrap;html=1;fontSize=14;fillColor=#ffe6cc;strokeColor=#d79b00;fontStyle=1" parent="1" vertex="1">
          <mxGeometry x="126" y="-30" width="189" height="117" as="geometry" />
        </mxCell>
        <mxCell id="xbLtoFNteLLevZgjdw11-22" value="1.3" style="text;html=1;align=center;verticalAlign=middle;whiteSpace=wrap;rounded=0;fontSize=15;fontStyle=1" parent="1" vertex="1">
          <mxGeometry x="-324" y="-18" width="60" height="30" as="geometry" />
        </mxCell>
        <mxCell id="xbLtoFNteLLevZgjdw11-27" value="" style="endArrow=none;html=1;rounded=0;endFill=0;" parent="1" edge="1">
          <mxGeometry width="50" height="50" relative="1" as="geometry">
            <mxPoint x="-324" y="18.75" as="sourcePoint" />
            <mxPoint x="126" y="19" as="targetPoint" />
          </mxGeometry>
        </mxCell>
        <mxCell id="xbLtoFNteLLevZgjdw11-28" value="" style="endArrow=none;html=1;rounded=0;entryX=1;entryY=0.75;entryDx=0;entryDy=0;endFill=0;" parent="1" target="xbLtoFNteLLevZgjdw11-3" edge="1">
          <mxGeometry width="50" height="50" relative="1" as="geometry">
            <mxPoint x="126" y="61" as="sourcePoint" />
            <mxPoint x="-279" y="63" as="targetPoint" />
          </mxGeometry>
        </mxCell>
        <mxCell id="xbLtoFNteLLevZgjdw11-30" value="&lt;div style=&quot;color: rgb(0, 0, 0); background-color: rgb(255, 255, 254); font-family: Consolas, &amp;quot;Courier New&amp;quot;, monospace; font-weight: normal; font-size: 14px; line-height: 18px; white-space: pre;&quot;&gt;&lt;div style=&quot;font-size: 14px;&quot;&gt;&lt;span style=&quot;color: rgb(0, 0, 0); font-size: 14px;&quot;&gt;{&lt;/span&gt;&lt;/div&gt;&lt;div style=&quot;font-size: 14px;&quot;&gt;&lt;span style=&quot;color: rgb(0, 0, 0); font-size: 14px;&quot;&gt;&amp;nbsp;&amp;nbsp;&amp;nbsp;&amp;nbsp;&lt;/span&gt;&lt;span style=&quot;color: rgb(163, 21, 21); font-size: 14px;&quot;&gt;&quot;username&quot;&lt;/span&gt;&lt;span style=&quot;color: rgb(0, 0, 0); font-size: 14px;&quot;&gt;:&amp;nbsp;&lt;/span&gt;&lt;span style=&quot;color: rgb(4, 81, 165); font-size: 14px;&quot;&gt;&quot;root&quot;&lt;/span&gt;&lt;span style=&quot;color: rgb(0, 0, 0); font-size: 14px;&quot;&gt;,&lt;/span&gt;&lt;/div&gt;&lt;div style=&quot;font-size: 14px;&quot;&gt;&lt;span style=&quot;color: rgb(0, 0, 0); font-size: 14px;&quot;&gt;&amp;nbsp;&amp;nbsp;&amp;nbsp;&amp;nbsp;&lt;/span&gt;&lt;span style=&quot;color: rgb(163, 21, 21); font-size: 14px;&quot;&gt;&quot;password&quot;&lt;/span&gt;&lt;span style=&quot;color: rgb(0, 0, 0); font-size: 14px;&quot;&gt;:&amp;nbsp;&lt;/span&gt;&lt;span style=&quot;color: rgb(4, 81, 165); font-size: 14px;&quot;&gt;&quot;$2a$12$BLLkXNT4Q77qwyW7LA9Qeuqcl13S8bXmYmbjFYslizu1eILN0XrjO&quot;&lt;/span&gt;&lt;span style=&quot;color: rgb(0, 0, 0); font-size: 14px;&quot;&gt;,&lt;/span&gt;&lt;/div&gt;&lt;div style=&quot;font-size: 14px;&quot;&gt;&lt;span style=&quot;color: rgb(0, 0, 0); font-size: 14px;&quot;&gt;&amp;nbsp;&amp;nbsp;&amp;nbsp;&amp;nbsp;&lt;/span&gt;&lt;span style=&quot;color: rgb(163, 21, 21); font-size: 14px;&quot;&gt;&quot;firstName&quot;&lt;/span&gt;&lt;span style=&quot;color: rgb(0, 0, 0); font-size: 14px;&quot;&gt;:&amp;nbsp;&lt;/span&gt;&lt;span style=&quot;color: rgb(4, 81, 165); font-size: 14px;&quot;&gt;&quot;Admin&amp;nbsp;User&quot;&lt;/span&gt;&lt;span style=&quot;color: rgb(0, 0, 0); font-size: 14px;&quot;&gt;,&lt;/span&gt;&lt;/div&gt;&lt;div style=&quot;font-size: 14px;&quot;&gt;&lt;span style=&quot;color: rgb(0, 0, 0); font-size: 14px;&quot;&gt;&amp;nbsp;&amp;nbsp;&amp;nbsp;&amp;nbsp;&lt;/span&gt;&lt;span style=&quot;color: rgb(163, 21, 21); font-size: 14px;&quot;&gt;&quot;lastName&quot;&lt;/span&gt;&lt;span style=&quot;color: rgb(0, 0, 0); font-size: 14px;&quot;&gt;:&amp;nbsp;&lt;/span&gt;&lt;span style=&quot;color: rgb(4, 81, 165); font-size: 14px;&quot;&gt;&quot;Admin&quot;&lt;/span&gt;&lt;span style=&quot;color: rgb(0, 0, 0); font-size: 14px;&quot;&gt;,&lt;/span&gt;&lt;/div&gt;&lt;div style=&quot;font-size: 14px;&quot;&gt;&lt;span style=&quot;color: rgb(0, 0, 0); font-size: 14px;&quot;&gt;&amp;nbsp;&amp;nbsp;&amp;nbsp;&amp;nbsp;&lt;/span&gt;&lt;span style=&quot;color: rgb(163, 21, 21); font-size: 14px;&quot;&gt;&quot;documentNumber&quot;&lt;/span&gt;&lt;span style=&quot;color: rgb(0, 0, 0); font-size: 14px;&quot;&gt;:&amp;nbsp;&lt;/span&gt;&lt;span style=&quot;color: rgb(4, 81, 165); font-size: 14px;&quot;&gt;&quot;XXXXXXXX&quot;&lt;/span&gt;&lt;span style=&quot;color: rgb(0, 0, 0); font-size: 14px;&quot;&gt;,&lt;/span&gt;&lt;/div&gt;&lt;div style=&quot;font-size: 14px;&quot;&gt;&lt;span style=&quot;color: rgb(0, 0, 0); font-size: 14px;&quot;&gt;&amp;nbsp;&amp;nbsp;&amp;nbsp;&amp;nbsp;&lt;/span&gt;&lt;span style=&quot;color: rgb(163, 21, 21); font-size: 14px;&quot;&gt;&quot;premium&quot;&lt;/span&gt;&lt;span style=&quot;color: rgb(0, 0, 0); font-size: 14px;&quot;&gt;:&amp;nbsp;&lt;/span&gt;&lt;span style=&quot;color: rgb(4, 81, 165); font-weight: bold; font-size: 14px;&quot;&gt;false&lt;/span&gt;&lt;span style=&quot;color: rgb(0, 0, 0); font-size: 14px;&quot;&gt;,&lt;/span&gt;&lt;/div&gt;&lt;div style=&quot;font-size: 14px;&quot;&gt;&lt;span style=&quot;color: rgb(0, 0, 0); font-size: 14px;&quot;&gt;&amp;nbsp;&amp;nbsp;&amp;nbsp;&amp;nbsp;&lt;/span&gt;&lt;span style=&quot;color: rgb(163, 21, 21); font-size: 14px;&quot;&gt;&quot;createdDate&quot;&lt;/span&gt;&lt;span style=&quot;color: rgb(0, 0, 0); font-size: 14px;&quot;&gt;:&amp;nbsp;&lt;/span&gt;&lt;span style=&quot;color: rgb(4, 81, 165); font-size: 14px;&quot;&gt;&quot;2024-05-29&quot;&lt;/span&gt;&lt;span style=&quot;color: rgb(0, 0, 0); font-size: 14px;&quot;&gt;,&lt;/span&gt;&lt;/div&gt;&lt;div style=&quot;font-size: 14px;&quot;&gt;&lt;span style=&quot;color: rgb(0, 0, 0); font-size: 14px;&quot;&gt;&amp;nbsp;&amp;nbsp;&amp;nbsp;&amp;nbsp;&lt;/span&gt;&lt;span style=&quot;color: rgb(163, 21, 21); font-size: 14px;&quot;&gt;&quot;active&quot;&lt;/span&gt;&lt;span style=&quot;color: rgb(0, 0, 0); font-size: 14px;&quot;&gt;:&amp;nbsp;&lt;/span&gt;&lt;span style=&quot;color: rgb(4, 81, 165); font-weight: bold; font-size: 14px;&quot;&gt;false&lt;/span&gt;&lt;/div&gt;&lt;div style=&quot;font-size: 14px;&quot;&gt;&lt;span style=&quot;color: rgb(0, 0, 0); font-size: 14px;&quot;&gt;}&lt;/span&gt;&lt;/div&gt;&lt;/div&gt;" style="text;whiteSpace=wrap;html=1;fontSize=14;" parent="1" vertex="1">
          <mxGeometry x="-378" y="99" width="369" height="117" as="geometry" />
        </mxCell>
        <mxCell id="xbLtoFNteLLevZgjdw11-33" value="" style="line;strokeWidth=1;direction=south;html=1;" parent="1" vertex="1">
          <mxGeometry x="-462" y="87" width="10" height="237" as="geometry" />
        </mxCell>
        <mxCell id="xbLtoFNteLLevZgjdw11-37" value="" style="edgeStyle=segmentEdgeStyle;endArrow=classic;html=1;curved=0;rounded=0;endSize=8;startSize=8;" parent="1" edge="1">
          <mxGeometry width="50" height="50" relative="1" as="geometry">
            <mxPoint x="-459" y="384" as="sourcePoint" />
            <mxPoint x="-495" y="594" as="targetPoint" />
            <Array as="points">
              <mxPoint x="-459" y="594" />
            </Array>
          </mxGeometry>
        </mxCell>
        <mxCell id="xbLtoFNteLLevZgjdw11-49" style="edgeStyle=orthogonalEdgeStyle;rounded=0;orthogonalLoop=1;jettySize=auto;html=1;entryX=0.75;entryY=1;entryDx=0;entryDy=0;endArrow=none;endFill=0;" parent="1" source="xbLtoFNteLLevZgjdw11-45" target="xbLtoFNteLLevZgjdw11-17" edge="1">
          <mxGeometry relative="1" as="geometry" />
        </mxCell>
        <mxCell id="xbLtoFNteLLevZgjdw11-45" value="users" style="shape=datastore;whiteSpace=wrap;html=1;fillColor=#e1d5e7;strokeColor=#9673a6;fontSize=14;fontStyle=1" parent="1" vertex="1">
          <mxGeometry x="405" y="87" width="108" height="108" as="geometry" />
        </mxCell>
        <mxCell id="xbLtoFNteLLevZgjdw11-50" value="1.5" style="text;html=1;align=center;verticalAlign=middle;whiteSpace=wrap;rounded=0;fontSize=15;fontStyle=1" parent="1" vertex="1">
          <mxGeometry x="261" y="108" width="60" height="30" as="geometry" />
        </mxCell>
        <mxCell id="xbLtoFNteLLevZgjdw11-51" value="1.6" style="text;html=1;align=center;verticalAlign=middle;whiteSpace=wrap;rounded=0;fontSize=15;fontStyle=1" parent="1" vertex="1">
          <mxGeometry x="66" y="30" width="60" height="30" as="geometry" />
        </mxCell>
        <mxCell id="xbLtoFNteLLevZgjdw11-55" value="&lt;font style=&quot;font-size: 18px;&quot;&gt;Fluxo AutenticaÃ§Ã£o&lt;/font&gt;" style="swimlane;whiteSpace=wrap;html=1;strokeColor=#6c8ebf;fillColor=#dae8fc;fillStyle=auto;swimlaneFillColor=none;shadow=0;sketch=1;curveFitting=1;jiggle=2;rounded=0;labelBackgroundColor=#D4E1F5;" parent="1" vertex="1">
          <mxGeometry x="-747" y="-63" width="1332" height="621" as="geometry" />
        </mxCell>
        <mxCell id="xbLtoFNteLLevZgjdw11-42" value="1.7" style="text;html=1;align=center;verticalAlign=middle;whiteSpace=wrap;rounded=0;fontSize=15;fontStyle=1" parent="xbLtoFNteLLevZgjdw11-55" vertex="1">
          <mxGeometry x="279" y="450" width="60" height="30" as="geometry" />
        </mxCell>
        <mxCell id="xbLtoFNteLLevZgjdw11-15" value="&lt;div style=&quot;color: rgb(0, 0, 0); background-color: rgb(255, 255, 254); font-family: Consolas, &amp;quot;Courier New&amp;quot;, monospace; font-weight: normal; font-size: 15px; line-height: 18px; white-space: pre;&quot;&gt;&lt;div style=&quot;font-size: 15px;&quot;&gt;&lt;span style=&quot;color: rgb(0, 0, 0); font-size: 15px;&quot;&gt;{&lt;/span&gt;&lt;/div&gt;&lt;div style=&quot;font-size: 15px;&quot;&gt;&lt;span style=&quot;color: rgb(0, 0, 0); font-size: 15px;&quot;&gt;&amp;nbsp;&amp;nbsp;&amp;nbsp;&amp;nbsp;&lt;/span&gt;&lt;span style=&quot;color: rgb(163, 21, 21); font-size: 15px;&quot;&gt;&quot;username&quot;&lt;/span&gt;&lt;span style=&quot;color: rgb(0, 0, 0); font-size: 15px;&quot;&gt;:&amp;nbsp;&lt;/span&gt;&lt;span style=&quot;color: rgb(4, 81, 165); font-size: 15px;&quot;&gt;&quot;root&quot;&lt;/span&gt;&lt;span style=&quot;color: rgb(0, 0, 0); font-size: 15px;&quot;&gt;,&lt;/span&gt;&lt;/div&gt;&lt;div style=&quot;font-size: 15px;&quot;&gt;&lt;span style=&quot;color: rgb(0, 0, 0); font-size: 15px;&quot;&gt;&amp;nbsp;&amp;nbsp;&amp;nbsp;&amp;nbsp;&lt;/span&gt;&lt;span style=&quot;color: rgb(163, 21, 21); font-size: 15px;&quot;&gt;&quot;password&quot;&lt;/span&gt;&lt;span style=&quot;color: rgb(0, 0, 0); font-size: 15px;&quot;&gt;:&amp;nbsp;&lt;/span&gt;&lt;span style=&quot;color: rgb(4, 81, 165); font-size: 15px;&quot;&gt;&quot;root&quot;&lt;/span&gt;&lt;/div&gt;&lt;div style=&quot;font-size: 15px;&quot;&gt;&lt;span style=&quot;color: rgb(0, 0, 0); font-size: 15px;&quot;&gt;}&lt;/span&gt;&lt;/div&gt;&lt;/div&gt;" style="text;whiteSpace=wrap;html=1;fontSize=15;" parent="xbLtoFNteLLevZgjdw11-55" vertex="1">
          <mxGeometry x="27" y="468" width="171" height="90" as="geometry" />
        </mxCell>
        <mxCell id="xbLtoFNteLLevZgjdw11-19" value="1.2" style="text;html=1;align=center;verticalAlign=middle;whiteSpace=wrap;rounded=0;fontSize=15;fontStyle=1" parent="xbLtoFNteLLevZgjdw11-55" vertex="1">
          <mxGeometry x="189" y="171" width="60" height="30" as="geometry" />
        </mxCell>
        <mxCell id="xbLtoFNteLLevZgjdw11-48" value="1.4" style="text;html=1;align=center;verticalAlign=middle;whiteSpace=wrap;rounded=0;fontSize=15;fontStyle=1" parent="xbLtoFNteLLevZgjdw11-55" vertex="1">
          <mxGeometry x="1053" y="54" width="60" height="36" as="geometry" />
        </mxCell>
        <mxCell id="xbLtoFNteLLevZgjdw11-56" value="API Gateway" style="shape=process;whiteSpace=wrap;html=1;backgroundOutline=1;fontSize=20;fillColor=#d5e8d4;strokeColor=#82b366;opacity=70;" parent="1" vertex="1">
          <mxGeometry x="720" y="315" width="1116" height="126" as="geometry" />
        </mxCell>
        <mxCell id="xbLtoFNteLLevZgjdw11-58" value="emusicapp" style="rounded=1;whiteSpace=wrap;html=1;fontSize=22;fontStyle=1;fillColor=#d5e8d4;strokeColor=#82b366;" parent="1" vertex="1">
          <mxGeometry x="864" y="-171" width="288" height="153" as="geometry" />
        </mxCell>
        <mxCell id="xbLtoFNteLLevZgjdw11-63" value="&lt;div style=&quot;color: rgb(0, 0, 0); background-color: rgb(255, 255, 254); font-family: Consolas, &amp;quot;Courier New&amp;quot;, monospace; font-weight: normal; font-size: 14px; line-height: 18px; white-space: pre;&quot;&gt;&lt;div style=&quot;font-size: 14px;&quot;&gt;&lt;span style=&quot;color: rgb(0, 0, 0); font-size: 14px;&quot;&gt;{&lt;/span&gt;&lt;/div&gt;&lt;div style=&quot;font-size: 14px;&quot;&gt;&lt;span style=&quot;color: rgb(0, 0, 0); font-size: 14px;&quot;&gt;&amp;nbsp;&amp;nbsp;&amp;nbsp;&amp;nbsp;&lt;/span&gt;&lt;span style=&quot;color: rgb(163, 21, 21); font-size: 14px;&quot;&gt;&quot;access_token&quot;&lt;/span&gt;&lt;span style=&quot;color: rgb(0, 0, 0); font-size: 14px;&quot;&gt;:&amp;nbsp;&lt;/span&gt;&lt;span style=&quot;color: rgb(4, 81, 165); font-size: 14px;&quot;&gt;&quot;eyJhbGciOiJIUzUxMiJ9.eyJqdGkiOiJlNGUyYmJkMS04ZWNiLTQzYmQtY&lt;/span&gt;&lt;/div&gt;&lt;div style=&quot;font-size: 14px;&quot;&gt;&lt;span style=&quot;color: rgb(4, 81, 165); font-size: 14px;&quot;&gt;TVmNC05YzI2YzkyZTFhYWYiLCJpc3MiOiJlbXVzaWNhdXRoIiwiaWF0IjoxNzE3MzUwNzQ5LCJuYmYiOj&lt;/span&gt;&lt;/div&gt;&lt;div style=&quot;font-size: 14px;&quot;&gt;&lt;span style=&quot;color: rgb(4, 81, 165); font-size: 14px;&quot;&gt;E3MTczNTA3NDksImV4cCI6MTcxNzQzNzE0OX0.I2BIRpDfUNZ8hH7iHuoGwZuEeO1nxBSf8oqXpUbxAn&lt;/span&gt;&lt;/div&gt;&lt;div style=&quot;font-size: 14px;&quot;&gt;&lt;span style=&quot;color: rgb(4, 81, 165); font-size: 14px;&quot;&gt;PzzsKEHaE7uiC_xKi2vwdnhJ6AUxZY_tTOjuQltCqgyw&quot;&lt;/span&gt;&lt;/div&gt;&lt;div style=&quot;font-size: 14px;&quot;&gt;&lt;span style=&quot;color: rgb(0, 0, 0); font-size: 14px;&quot;&gt;}&lt;/span&gt;&lt;/div&gt;&lt;/div&gt;" style="text;whiteSpace=wrap;html=1;fontSize=14;" parent="1" vertex="1">
          <mxGeometry x="783" y="459" width="549" height="72" as="geometry" />
        </mxCell>
        <mxCell id="xbLtoFNteLLevZgjdw11-72" style="edgeStyle=orthogonalEdgeStyle;rounded=0;orthogonalLoop=1;jettySize=auto;html=1;" parent="1" source="xbLtoFNteLLevZgjdw11-66" edge="1">
          <mxGeometry relative="1" as="geometry">
            <mxPoint x="1134" y="315" as="targetPoint" />
            <Array as="points">
              <mxPoint x="1135" y="126" />
              <mxPoint x="1135" y="315" />
            </Array>
          </mxGeometry>
        </mxCell>
        <mxCell id="xbLtoFNteLLevZgjdw11-66" value="Spotify" style="rounded=1;whiteSpace=wrap;html=1;fontSize=22;fontStyle=1;fillColor=#fff2cc;strokeColor=#d6b656;" parent="1" vertex="1">
          <mxGeometry x="810" y="60" width="288" height="153" as="geometry" />
        </mxCell>
        <mxCell id="xbLtoFNteLLevZgjdw11-67" value="" style="edgeStyle=segmentEdgeStyle;endArrow=none;html=1;curved=0;rounded=0;endSize=8;startSize=8;endFill=0;" parent="1" edge="1">
          <mxGeometry width="50" height="50" relative="1" as="geometry">
            <mxPoint x="752" y="315" as="sourcePoint" />
            <mxPoint x="810" y="126" as="targetPoint" />
            <Array as="points">
              <mxPoint x="752" y="310" />
              <mxPoint x="752" y="126" />
            </Array>
          </mxGeometry>
        </mxCell>
        <mxCell id="xbLtoFNteLLevZgjdw11-68" value="client_id, client_secret, grant_type&lt;div style=&quot;font-size: 15px;&quot;&gt;(x-www-form-url-encoded)&lt;/div&gt;" style="text;html=1;align=center;verticalAlign=middle;whiteSpace=wrap;rounded=0;fontSize=15;fontStyle=1" parent="1" vertex="1">
          <mxGeometry x="768" y="234" width="249" height="48" as="geometry" />
        </mxCell>
        <mxCell id="xbLtoFNteLLevZgjdw11-71" value="2.2" style="text;html=1;align=center;verticalAlign=middle;whiteSpace=wrap;rounded=0;fontSize=15;fontStyle=1" parent="1" vertex="1">
          <mxGeometry x="756" y="99" width="60" height="30" as="geometry" />
        </mxCell>
        <mxCell id="xbLtoFNteLLevZgjdw11-73" value="&lt;div style=&quot;color: rgb(0, 0, 0); background-color: rgb(255, 255, 254); font-family: Consolas, &amp;quot;Courier New&amp;quot;, monospace; font-weight: normal; font-size: 15px; line-height: 18px; white-space: pre;&quot;&gt;&lt;div style=&quot;font-size: 15px;&quot;&gt;&lt;span style=&quot;color: rgb(0, 0, 0); font-size: 15px;&quot;&gt;{&lt;/span&gt;&lt;/div&gt;&lt;div style=&quot;font-size: 15px;&quot;&gt;&lt;span style=&quot;color: rgb(0, 0, 0); font-size: 15px;&quot;&gt;&amp;nbsp;&amp;nbsp;&amp;nbsp;&amp;nbsp;&lt;/span&gt;&lt;span style=&quot;color: rgb(163, 21, 21); font-size: 15px;&quot;&gt;&quot;access_token&quot;&lt;/span&gt;&lt;span style=&quot;color: rgb(0, 0, 0); font-size: 15px;&quot;&gt;:&amp;nbsp;&lt;/span&gt;&lt;span style=&quot;color: rgb(4, 81, 165); font-size: 15px;&quot;&gt;&quot;BQDpfOLGy-KfvmUfiizY9xY86k94RpqI7SeP4mtdOMz&lt;/span&gt;&lt;/div&gt;&lt;div style=&quot;font-size: 15px;&quot;&gt;&lt;span style=&quot;color: rgb(4, 81, 165); font-size: 15px;&quot;&gt;--6IRGqexLmwj_N0tE&lt;/span&gt;&lt;span style=&quot;color: rgb(4, 81, 165);&quot;&gt;YtqWHiZnBTiBDMnXv3UDaE7t5zpTSVJITiVzkS8NCabPHgI&lt;/span&gt;&lt;/div&gt;&lt;div style=&quot;font-size: 15px;&quot;&gt;&lt;span style=&quot;color: rgb(4, 81, 165);&quot;&gt;RMmmxeo&quot;&lt;/span&gt;,&lt;/div&gt;&lt;div style=&quot;font-size: 15px;&quot;&gt;&lt;span style=&quot;color: rgb(0, 0, 0); font-size: 15px;&quot;&gt;&amp;nbsp;&amp;nbsp;&amp;nbsp;&amp;nbsp;&lt;/span&gt;&lt;span style=&quot;color: rgb(163, 21, 21); font-size: 15px;&quot;&gt;&quot;token_type&quot;&lt;/span&gt;&lt;span style=&quot;color: rgb(0, 0, 0); font-size: 15px;&quot;&gt;:&amp;nbsp;&lt;/span&gt;&lt;span style=&quot;color: rgb(4, 81, 165); font-size: 15px;&quot;&gt;&quot;Bearer&quot;&lt;/span&gt;&lt;span style=&quot;color: rgb(0, 0, 0); font-size: 15px;&quot;&gt;,&lt;/span&gt;&lt;/div&gt;&lt;div style=&quot;font-size: 15px;&quot;&gt;&lt;span style=&quot;color: rgb(0, 0, 0); font-size: 15px;&quot;&gt;&amp;nbsp;&amp;nbsp;&amp;nbsp;&amp;nbsp;&lt;/span&gt;&lt;span style=&quot;color: rgb(163, 21, 21); font-size: 15px;&quot;&gt;&quot;expires_in&quot;&lt;/span&gt;&lt;span style=&quot;color: rgb(0, 0, 0); font-size: 15px;&quot;&gt;:&amp;nbsp;&lt;/span&gt;&lt;span style=&quot;color: rgb(9, 134, 88); font-size: 15px;&quot;&gt;3600&lt;/span&gt;&lt;/div&gt;&lt;div style=&quot;font-size: 15px;&quot;&gt;&lt;span style=&quot;color: rgb(0, 0, 0); font-size: 15px;&quot;&gt;}&lt;/span&gt;&lt;/div&gt;&lt;/div&gt;" style="text;whiteSpace=wrap;html=1;fontSize=15;" parent="1" vertex="1">
          <mxGeometry x="1152" y="144" width="549" height="108" as="geometry" />
        </mxCell>
        <mxCell id="xbLtoFNteLLevZgjdw11-75" value="2.3" style="text;html=1;align=center;verticalAlign=middle;whiteSpace=wrap;rounded=0;fontSize=15;fontStyle=1" parent="1" vertex="1">
          <mxGeometry x="1137" y="282" width="60" height="30" as="geometry" />
        </mxCell>
        <mxCell id="xbLtoFNteLLevZgjdw11-76" value="" style="edgeStyle=segmentEdgeStyle;endArrow=none;html=1;curved=0;rounded=0;endSize=8;startSize=8;exitX=0.939;exitY=-0.007;exitDx=0;exitDy=0;exitPerimeter=0;endFill=0;" parent="1" source="xbLtoFNteLLevZgjdw11-56" edge="1">
          <mxGeometry width="50" height="50" relative="1" as="geometry">
            <mxPoint x="1719" y="293" as="sourcePoint" />
            <mxPoint x="1152" y="-115" as="targetPoint" />
            <Array as="points">
              <mxPoint x="1768" y="81" />
              <mxPoint x="1769" y="-115" />
            </Array>
          </mxGeometry>
        </mxCell>
        <mxCell id="xbLtoFNteLLevZgjdw11-78" value="2.4" style="text;html=1;align=center;verticalAlign=middle;whiteSpace=wrap;rounded=0;fontSize=15;fontStyle=1" parent="1" vertex="1">
          <mxGeometry x="1764" y="282" width="60" height="30" as="geometry" />
        </mxCell>
        <mxCell id="xbLtoFNteLLevZgjdw11-79" value="&lt;div style=&quot;color: rgb(0, 0, 0); background-color: rgb(255, 255, 254); font-family: Consolas, &amp;quot;Courier New&amp;quot;, monospace; font-weight: normal; font-size: 15px; line-height: 18px; white-space: pre;&quot;&gt;&lt;div style=&quot;font-size: 15px;&quot;&gt;&lt;span style=&quot;color: rgb(0, 0, 0); font-size: 15px;&quot;&gt;{&lt;/span&gt;&lt;/div&gt;&lt;div style=&quot;font-size: 15px;&quot;&gt;&lt;span style=&quot;color: rgb(0, 0, 0); font-size: 15px;&quot;&gt;&amp;nbsp;&amp;nbsp;&amp;nbsp;&amp;nbsp;&lt;/span&gt;&lt;span style=&quot;color: rgb(163, 21, 21); font-size: 15px;&quot;&gt;&quot;access_token&quot;&lt;/span&gt;&lt;span style=&quot;color: rgb(0, 0, 0); font-size: 15px;&quot;&gt;:&amp;nbsp;&lt;/span&gt;&lt;span style=&quot;color: rgb(4, 81, 165); font-size: 15px;&quot;&gt;&quot;BQDpfOLGy-KfvmUfiizY9xY86k94RpqI7SeP4mtdOMz&lt;/span&gt;&lt;/div&gt;&lt;div style=&quot;font-size: 15px;&quot;&gt;&lt;span style=&quot;color: rgb(4, 81, 165); font-size: 15px;&quot;&gt;--6IRGqexLmwj_N0tE&lt;/span&gt;&lt;span style=&quot;color: rgb(4, 81, 165);&quot;&gt;YtqWHiZnBTiBDMnXv3UDaE7t5zpTSVJITiVzkS8NCabPHgI&lt;/span&gt;&lt;/div&gt;&lt;div style=&quot;font-size: 15px;&quot;&gt;&lt;span style=&quot;color: rgb(4, 81, 165);&quot;&gt;RMmmxeo&quot;&lt;/span&gt;,&lt;/div&gt;&lt;div style=&quot;font-size: 15px;&quot;&gt;&lt;span style=&quot;color: rgb(0, 0, 0); font-size: 15px;&quot;&gt;&amp;nbsp;&amp;nbsp;&amp;nbsp;&amp;nbsp;&lt;/span&gt;&lt;span style=&quot;color: rgb(163, 21, 21); font-size: 15px;&quot;&gt;&quot;token_type&quot;&lt;/span&gt;&lt;span style=&quot;color: rgb(0, 0, 0); font-size: 15px;&quot;&gt;:&amp;nbsp;&lt;/span&gt;&lt;span style=&quot;color: rgb(4, 81, 165); font-size: 15px;&quot;&gt;&quot;Bearer&quot;&lt;/span&gt;&lt;span style=&quot;color: rgb(0, 0, 0); font-size: 15px;&quot;&gt;,&lt;/span&gt;&lt;/div&gt;&lt;div style=&quot;font-size: 15px;&quot;&gt;&lt;span style=&quot;color: rgb(0, 0, 0); font-size: 15px;&quot;&gt;&amp;nbsp;&amp;nbsp;&amp;nbsp;&amp;nbsp;&lt;/span&gt;&lt;span style=&quot;color: rgb(163, 21, 21); font-size: 15px;&quot;&gt;&quot;expires_in&quot;&lt;/span&gt;&lt;span style=&quot;color: rgb(0, 0, 0); font-size: 15px;&quot;&gt;:&amp;nbsp;&lt;/span&gt;&lt;span style=&quot;color: rgb(9, 134, 88); font-size: 15px;&quot;&gt;3600&lt;/span&gt;&lt;/div&gt;&lt;div style=&quot;font-size: 15px;&quot;&gt;&lt;span style=&quot;color: rgb(0, 0, 0); font-size: 15px;&quot;&gt;}&lt;/span&gt;&lt;/div&gt;&lt;/div&gt;" style="text;whiteSpace=wrap;html=1;fontSize=15;" parent="1" vertex="1">
          <mxGeometry x="1782" y="99" width="549" height="108" as="geometry" />
        </mxCell>
        <mxCell id="xbLtoFNteLLevZgjdw11-81" value="2.5" style="text;html=1;align=center;verticalAlign=middle;whiteSpace=wrap;rounded=0;fontSize=15;fontStyle=1" parent="1" vertex="1">
          <mxGeometry x="792" y="-144" width="60" height="36" as="geometry" />
        </mxCell>
        <mxCell id="xbLtoFNteLLevZgjdw11-83" value="RESPONSE (JSON)" style="label;whiteSpace=wrap;html=1;image=img/clipart/Gear_128x128.png" parent="1" vertex="1">
          <mxGeometry x="702" y="-90" width="140" height="60" as="geometry" />
        </mxCell>
        <mxCell id="7OIJ4sXSEIsrHAQETV5L-5" value="" style="edgeStyle=orthogonalEdgeStyle;rounded=0;orthogonalLoop=1;jettySize=auto;html=1;" edge="1" parent="1">
          <mxGeometry relative="1" as="geometry">
            <mxPoint x="-513" y="684" as="targetPoint" />
            <Array as="points">
              <mxPoint x="685" y="-115" />
              <mxPoint x="685" y="720" />
              <mxPoint x="-513" y="720" />
            </Array>
            <mxPoint x="864" y="-114.9230769230769" as="sourcePoint" />
          </mxGeometry>
        </mxCell>
        <mxCell id="7OIJ4sXSEIsrHAQETV5L-9" value="" style="shape=partialRectangle;whiteSpace=wrap;html=1;bottom=0;right=0;fillColor=none;rotation=-180;" vertex="1" parent="1">
          <mxGeometry x="-489" y="441" width="1239" height="207" as="geometry" />
        </mxCell>
        <mxCell id="7OIJ4sXSEIsrHAQETV5L-11" value="2.1" style="text;html=1;align=center;verticalAlign=middle;whiteSpace=wrap;rounded=0;fontSize=15;fontStyle=1" vertex="1" parent="1">
          <mxGeometry x="-502" y="618" width="60" height="30" as="geometry" />
        </mxCell>
        <mxCell id="7OIJ4sXSEIsrHAQETV5L-12" value="&lt;br style=&quot;font-size: 17px;&quot;&gt;&lt;span style=&quot;color: rgb(80, 80, 80); font-family: OpenSans, Helvetica, Arial, sans-serif; font-size: 17px; font-style: normal; font-variant-ligatures: normal; font-variant-caps: normal; font-weight: 400; letter-spacing: normal; orphans: 2; text-align: left; text-indent: 0px; text-transform: none; white-space: pre-wrap; widows: 2; word-spacing: 0px; -webkit-text-stroke-width: 0px; background-color: rgb(255, 255, 255); text-decoration-style: initial; text-decoration-color: initial; float: none; display: inline !important;&quot;&gt;/emusicapp/v1/&lt;/span&gt;&lt;span style=&quot;color: rgb(80, 80, 80); font-family: OpenSans, Helvetica, Arial, sans-serif; font-size: 17px; font-style: normal; font-variant-ligatures: normal; font-variant-caps: normal; letter-spacing: normal; orphans: 2; text-align: left; text-indent: 0px; text-transform: none; white-space: pre-wrap; widows: 2; word-spacing: 0px; -webkit-text-stroke-width: 0px; background-color: rgb(255, 255, 255); text-decoration-style: initial; text-decoration-color: initial; float: none; display: inline !important;&quot;&gt;&lt;b style=&quot;font-size: 17px;&quot;&gt;resource&lt;/b&gt;&lt;/span&gt;&lt;div style=&quot;font-size: 17px;&quot;&gt;&lt;br style=&quot;font-size: 17px;&quot;&gt;&lt;/div&gt;" style="text;html=1;align=center;verticalAlign=middle;whiteSpace=wrap;rounded=0;fontSize=17;" vertex="1" parent="1">
          <mxGeometry x="1224" y="-153" width="60" height="30" as="geometry" />
        </mxCell>
        <mxCell id="xbLtoFNteLLevZgjdw11-6" value="1.1" style="text;html=1;align=center;verticalAlign=middle;whiteSpace=wrap;rounded=0;fontSize=17;fontStyle=1" parent="1" vertex="1">
          <mxGeometry x="-558" y="567" width="60" height="30" as="geometry" />
        </mxCell>
        <mxCell id="7OIJ4sXSEIsrHAQETV5L-32" value="&lt;font style=&quot;font-size: 18px;&quot;&gt;Fluxo Autenticado&lt;/font&gt;" style="swimlane;whiteSpace=wrap;html=1;strokeColor=#6c8ebf;fillColor=#dae8fc;fillStyle=auto;swimlaneFillColor=none;shadow=0;sketch=1;curveFitting=1;jiggle=2;rounded=0;labelBackgroundColor=#D4E1F5;" vertex="1" parent="1">
          <mxGeometry x="630" y="-207" width="1332" height="891" as="geometry" />
        </mxCell>
        <mxCell id="7OIJ4sXSEIsrHAQETV5L-33" value="1.7" style="text;html=1;align=center;verticalAlign=middle;whiteSpace=wrap;rounded=0;fontSize=15;fontStyle=1" vertex="1" parent="7OIJ4sXSEIsrHAQETV5L-32">
          <mxGeometry x="279" y="450" width="60" height="30" as="geometry" />
        </mxCell>
        <mxCell id="7OIJ4sXSEIsrHAQETV5L-35" value="1.2" style="text;html=1;align=center;verticalAlign=middle;whiteSpace=wrap;rounded=0;fontSize=15;fontStyle=1" vertex="1" parent="7OIJ4sXSEIsrHAQETV5L-32">
          <mxGeometry x="189" y="171" width="60" height="30" as="geometry" />
        </mxCell>
        <mxCell id="7OIJ4sXSEIsrHAQETV5L-36" value="1.4" style="text;html=1;align=center;verticalAlign=middle;whiteSpace=wrap;rounded=0;fontSize=15;fontStyle=1" vertex="1" parent="7OIJ4sXSEIsrHAQETV5L-32">
          <mxGeometry x="1053" y="54" width="60" height="36" as="geometry" />
        </mxCell>
      </root>
    </mxGraphModel>
  </diagram>
</mxfile>
